<?xml version="1.0" standalone="no"?>
<!DOCTYPE svg PUBLIC "-//W3C//DTD SVG 20010904//EN"
 "http://www.w3.org/TR/2001/REC-SVG-20010904/DTD/svg10.dtd">
<svg version="1.0" xmlns="http://www.w3.org/2000/svg"
 width="512.000000pt" height="512.000000pt" viewBox="0 0 512.000000 512.000000"
 preserveAspectRatio="xMidYMid meet">
<metadata>
Created by potrace 1.16, written by Peter Selinger 2001-2019
</metadata>
<g transform="translate(0.000000,512.000000) scale(0.100000,-0.100000)"
fill="#000000" stroke="none">
<path d="M865 4119 c-164 -24 -267 -103 -325 -248 -26 -67 -25 -104 3 -135 12
-14 249 -169 527 -344 278 -175 711 -450 964 -611 252 -161 472 -298 488 -303
16 -6 43 -8 60 -4 17 3 330 197 697 430 366 233 783 497 926 586 143 90 284
179 313 198 56 37 82 74 82 119 0 38 -50 139 -94 190 -47 53 -158 109 -246
123 -81 12 -3308 12 -3395 -1z"/>
<path d="M520 2559 c0 -735 2 -840 15 -836 8 4 307 192 664 419 488 310 647
416 638 424 -15 14 -1304 834 -1312 834 -3 0 -5 -378 -5 -841z"/>
<path d="M3933 2982 c-359 -230 -653 -420 -653 -423 0 -7 1303 -839 1314 -839
3 0 6 378 6 840 0 462 -3 840 -7 839 -5 0 -302 -188 -660 -417z"/>
<path d="M2805 2264 c-216 -136 -220 -137 -260 -131 -18 3 -80 37 -137 75
-274 183 -273 183 -499 42 -1012 -632 -1367 -862 -1379 -890 -16 -38 -7 -82
31 -158 55 -110 157 -179 299 -203 79 -13 3318 -12 3398 1 111 18 171 47 238
114 99 99 129 212 72 273 -12 13 -142 99 -288 190 -146 92 -479 302 -740 468
-531 338 -510 325 -542 325 -13 0 -100 -48 -193 -106z"/>
</g>
</svg>
