<?xml version="1.0" standalone="no"?>
<!DOCTYPE svg PUBLIC "-//W3C//DTD SVG 20010904//EN"
 "http://www.w3.org/TR/2001/REC-SVG-20010904/DTD/svg10.dtd">
<svg version="1.0" xmlns="http://www.w3.org/2000/svg"
 width="981.000000pt" height="980.000000pt" viewBox="0 0 981.000000 980.000000"
 preserveAspectRatio="xMidYMid meet">
<metadata>
Created by potrace 1.16, written by Peter Selinger 2001-2019
</metadata>
<g transform="translate(0.000000,980.000000) scale(0.100000,-0.100000)"
fill="#000000" stroke="none">
<path d="M1559 9785 c-473 -77 -887 -326 -1172 -704 -209 -277 -330 -587 -368
-936 -14 -133 -7 -374 16 -500 20 -114 69 -293 100 -365 13 -30 56 -134 95
-230 174 -428 431 -963 647 -1350 454 -812 967 -1533 1598 -2247 173 -195 761
-786 950 -954 1124 -999 2301 -1732 3645 -2268 135 -54 293 -115 352 -134 408
-138 851 -125 1251 37 333 135 619 370 826 676 136 203 215 388 278 655 41
176 41 253 -2 382 -39 116 -79 178 -174 274 -71 71 -114 102 -251 184 -488
290 -1155 733 -1565 1038 -144 108 -267 150 -435 151 -126 0 -202 -18 -320
-76 -68 -33 -102 -58 -170 -127 -47 -47 -94 -104 -105 -126 -58 -117 -162
-232 -270 -297 -181 -110 -428 -129 -624 -49 -81 33 -137 70 -356 235 -520
391 -927 747 -1400 1228 -411 416 -742 800 -1082 1254 -205 273 -257 395 -257
604 0 91 5 130 23 190 58 189 168 330 336 431 170 101 285 241 345 419 34 100
39 271 11 379 -32 128 -57 173 -238 429 -302 428 -610 902 -853 1312 -128 216
-167 269 -250 337 -157 131 -365 184 -581 148z"/>
</g>
</svg>
